<svg width="1475" height="502" viewBox="0 0 1475 502" fill="none" xmlns="http://www.w3.org/2000/svg">
<path fill-rule="evenodd" clip-rule="evenodd" d="M418.907 0.627244C418.907 0.970387 417.638 1.2545 416.086 1.2545C414.534 1.2545 413.265 1.53491 413.265 1.88175C413.265 2.22489 412.207 2.52007 410.913 2.53483C409.618 2.54959 407.292 2.84846 405.739 3.19898C404.187 3.54582 401.716 4.09927 400.252 4.42397C398.785 4.75235 396.248 5.32795 394.607 5.7043C392.97 6.08065 390.005 6.52711 388.025 6.70052C386.041 6.87025 384.419 7.25028 384.419 7.54177C384.419 7.83325 381.668 8.19486 378.305 8.34244C356.686 9.29808 344.584 10.1467 340.207 11.0101C337.449 11.5562 333.92 12.1502 332.367 12.3347C330.815 12.5192 329.277 12.9251 328.949 13.2387C328.621 13.5486 327.142 13.8032 325.656 13.8032C324.174 13.8032 322.961 14.0873 322.961 14.4305C322.961 14.7773 321.973 15.0577 320.767 15.0577C319.557 15.0577 318.573 15.3086 318.573 15.6149C318.573 15.9211 317.326 16.3565 315.804 16.5853C314.284 16.814 311.899 17.552 310.505 18.2272C309.111 18.8987 307.253 19.4522 306.371 19.4522C305.494 19.4522 304.775 19.7326 304.775 20.0794C304.775 20.4226 304.21 20.7067 303.521 20.7067C302.831 20.7067 302.267 20.9871 302.267 21.3339C302.267 21.6771 301.559 21.9612 300.7 21.9612C299.837 21.9612 299.129 22.2453 299.129 22.5884C299.129 22.9353 298.565 23.2157 297.875 23.2157C297.186 23.2157 296.618 23.4297 296.614 23.6879C296.611 23.9462 295.412 24.7063 293.948 25.3778C292.488 26.0494 289.42 27.8131 287.13 29.3C284.844 30.7833 282.658 32.0009 282.27 32.0009C281.887 32.0009 281.573 32.2518 281.573 32.5617C281.573 32.868 280.865 33.296 280.003 33.5137C279.143 33.7313 278.435 34.1852 278.435 34.5246C278.435 34.8604 278.155 35.1371 277.809 35.1371C277.466 35.1371 275.987 36.2699 274.523 37.6498C273.056 39.0298 271.654 40.1588 271.407 40.1588C271.157 40.1588 269.966 41.1477 268.756 42.3542C267.55 43.5644 266.4 44.5496 266.201 44.5496C266.002 44.5496 265.146 45.1879 264.305 45.9627C260.434 49.5307 259.644 50.1985 259.302 50.1985C259.102 50.1985 258.258 50.8332 257.428 51.6117C254.777 54.0949 254.228 54.438 252.203 54.8808C251.108 55.1206 250.216 55.5781 250.216 55.8954C250.216 56.2128 249.512 56.4747 248.649 56.4747C247.786 56.4747 247.082 56.6998 247.082 56.9765C247.082 58.1905 238.977 58.9874 226.034 59.0428C204.887 59.135 184.676 60.9799 183.846 62.8911C183.732 63.1605 182.954 63.3745 182.113 63.3745C181.276 63.3745 180.1 63.6365 179.503 63.9538C178.536 64.463 176.516 65.4813 169.631 68.9238C168.599 69.4441 167.611 70.0307 167.437 70.23C167.264 70.4292 166.302 71.0159 165.299 71.5361C160.516 73.9972 152.821 83.0259 149.517 90.0437C148.539 92.1173 147.588 93.9511 147.4 94.1245C146.862 94.6153 145.379 98.6481 145.033 100.556C144.859 101.504 144.469 102.283 144.163 102.283C143.856 102.283 143.606 102.917 143.602 103.692C143.598 104.47 143.031 107.898 142.341 111.311C141.408 115.931 140.984 121.332 140.682 132.486C140.457 140.722 140.036 147.463 139.745 147.463C139.454 147.463 139.214 148.378 139.21 149.5C139.196 152.706 138.55 154.363 137.315 154.363C136.696 154.363 136.076 154.702 135.94 155.112C135.759 155.65 130.744 156.001 117.978 156.366C108.236 156.643 99.7368 157.152 99.0878 157.499C98.4425 157.846 96.2005 158.13 94.1061 158.13C91.9895 158.13 90.3044 158.407 90.3044 158.757C90.3044 159.1 89.3309 159.384 88.1399 159.384C85.1494 159.384 77.7009 161.418 72.9626 163.524C71.8748 164.008 70.6764 164.402 70.2966 164.402C69.9204 164.402 69.6107 164.687 69.6107 165.03C69.6107 165.377 69.0429 165.661 68.3533 165.661C67.6638 165.661 67.0996 165.941 67.0996 166.288C67.0996 166.631 66.7272 166.915 66.2699 166.915C65.8127 166.915 64.7765 167.62 63.9653 168.483C63.1541 169.347 62.2138 170.051 61.8746 170.051C60.7278 170.051 52.0071 179.416 51.0742 181.645C50.569 182.862 49.5918 184.205 48.906 184.633C48.2201 185.065 47.6596 185.91 47.6596 186.519C47.6596 187.124 47.3794 187.622 47.0328 187.622C46.6898 187.622 46.4059 188.186 46.4059 188.876C46.4059 189.566 46.1478 190.131 45.827 190.131C45.5099 190.131 45.06 191.009 44.824 192.083C44.588 193.156 43.7178 195.566 42.8918 197.436C42.0658 199.303 41.3874 201.816 41.3874 203.012C41.3874 204.211 41.1071 205.192 40.7605 205.192C40.4176 205.192 40.1336 206.462 40.1336 208.015C40.1336 209.568 39.8755 210.838 39.5584 210.838C38.7398 210.838 38.1609 224.619 38.1425 244.724C38.1203 264.183 38.7287 278.61 39.5695 278.61C39.8829 278.61 40.1336 280.02 40.1336 281.746C40.1336 283.473 40.4176 284.883 40.7605 284.883C41.1071 284.883 41.3874 285.698 41.3874 286.691C41.3874 287.683 42.0769 290.045 42.9139 291.941C43.751 293.838 44.6286 296.417 44.8646 297.668C45.1006 298.918 45.5431 299.944 45.8491 299.944C46.1552 299.944 46.4059 300.59 46.4059 301.376C46.4059 302.162 46.9701 303.213 47.6596 303.711C48.3492 304.206 48.9133 305.117 48.9133 305.73C48.9133 306.346 49.1973 306.848 49.5402 306.848C49.8868 306.848 50.1671 307.977 50.1671 309.357C50.1671 310.736 50.451 311.866 50.7976 311.866C51.6125 311.866 51.6125 316.695 50.7976 317.201C50.451 317.415 50.1671 318.241 50.1671 319.038C50.1671 320.761 49.2784 321.739 27.9062 343.453C18.9385 352.567 11.1064 360.695 10.498 361.514C9.89329 362.337 8.6912 363.898 7.83204 364.983C6.97287 366.067 6.27226 367.178 6.27226 367.451C6.27226 367.724 5.73391 368.532 5.07755 369.244C4.42119 369.956 3.00892 373.166 1.94326 376.38L0 382.217V431.792L1.88057 437.367C2.91673 440.433 3.7759 443.311 3.79065 443.762C3.8054 444.215 5.07755 445.854 6.61151 447.407C8.14915 448.96 9.56511 450.724 9.76054 451.329C9.95966 451.934 10.38 452.429 10.7045 452.429C11.0253 452.429 11.2871 452.801 11.2871 453.263C11.2871 453.72 12.7695 455.513 14.58 457.248C16.3905 458.978 18.9164 461.498 20.1922 462.845C21.468 464.192 24.2225 466.844 26.317 468.741C30.4395 472.486 30.5685 472.612 33.972 476.294C35.2368 477.663 36.6527 478.784 37.1137 478.784C37.5746 478.784 38.7951 479.766 39.8276 480.965C40.8601 482.164 42.0548 483.153 42.4862 483.16C42.9176 483.168 43.2716 483.426 43.2716 483.729C43.2716 484.035 43.7657 484.463 44.3668 484.684C46.299 485.393 50.5874 487.887 52.881 489.636C54.1015 490.569 55.3331 491.34 55.6133 491.355C55.8973 491.366 57.2542 491.92 58.6333 492.588C60.0161 493.255 62.0589 493.809 63.1799 493.82C64.3009 493.835 65.219 494.126 65.219 494.469C65.219 494.816 65.9233 495.097 66.7862 495.097C67.649 495.097 68.3533 495.381 68.3533 495.724C68.3533 496.122 72.627 496.351 79.9207 496.351C86.9525 496.351 91.6356 496.108 91.8715 495.724C92.0854 495.381 93.2285 495.097 94.4158 495.097C95.6032 495.097 96.573 494.853 96.573 494.554C96.573 494.252 97.7234 493.853 99.1246 493.665C101.864 493.3 108.026 490.466 110.032 488.654C110.71 488.042 112.333 487.072 113.638 486.492C114.947 485.917 116.017 485.216 116.017 484.935C116.017 484.658 116.437 484.43 116.957 484.43C117.473 484.43 117.897 484.149 117.897 483.802C117.897 483.459 118.188 483.175 118.546 483.175C118.9 483.175 120.18 482.186 121.389 480.98C122.595 479.77 123.86 478.784 124.203 478.784C124.542 478.784 126.375 477.231 128.27 475.331C130.169 473.434 131.976 471.881 132.293 471.881C132.606 471.881 133.041 471.316 133.259 470.626C133.48 469.936 133.93 469.368 134.266 469.368C134.597 469.368 135.859 468.383 137.064 467.173C138.274 465.966 139.546 464.977 139.896 464.977C140.243 464.977 141.235 464.273 142.098 463.409C143.735 461.771 151.132 461 151.132 462.469C151.132 462.812 151.556 463.096 152.072 463.096C152.592 463.096 153.016 463.358 153.016 463.679C153.016 464.003 153.532 464.431 154.17 464.631C154.804 464.834 155.682 465.667 156.117 466.487C156.556 467.306 157.655 468.361 158.558 468.83C159.465 469.298 161.055 470.49 162.098 471.475C163.138 472.46 165.048 473.73 166.342 474.29C167.633 474.855 168.691 475.53 168.691 475.792C168.691 476.058 169.137 476.272 169.679 476.272C170.221 476.272 171.062 476.67 171.549 477.157C172.036 477.644 173.776 478.522 175.421 479.105C177.065 479.688 179.44 480.703 180.694 481.356C181.947 482.013 183.71 482.548 184.613 482.548C185.513 482.548 186.251 482.828 186.251 483.175C186.251 483.522 187.803 483.802 189.702 483.802C191.597 483.802 193.15 484.086 193.15 484.43C193.15 484.795 195.24 485.057 198.164 485.057C201.092 485.057 203.183 485.319 203.183 485.684C203.183 486.094 211.233 486.311 226.074 486.311C240.913 486.311 248.962 486.094 248.962 485.684C248.962 485.315 251.156 485.057 254.294 485.057C257.428 485.057 259.622 484.799 259.622 484.43C259.622 484.086 260.876 483.802 262.406 483.802C263.94 483.802 265.367 483.522 265.581 483.175C265.795 482.828 266.518 482.548 267.193 482.548C267.864 482.548 269.612 482.02 271.075 481.375C272.536 480.729 275.497 479.537 277.654 478.718C279.807 477.902 281.573 477.021 281.573 476.755C281.573 476.489 282.075 476.272 282.687 476.272C283.303 476.272 284.21 475.707 284.708 475.017C285.206 474.327 286.083 473.763 286.658 473.763C287.237 473.763 287.872 473.338 288.071 472.822C288.27 472.305 288.808 471.881 289.269 471.881C289.73 471.881 292.422 469.623 295.254 466.859C298.082 464.099 300.818 461.841 301.334 461.841C301.847 461.841 302.267 461.557 302.267 461.214C302.267 460.188 306.629 460.498 308.598 461.66C309.598 462.254 310.42 462.959 310.42 463.229C310.42 463.502 310.711 463.723 311.073 463.723C311.755 463.723 312.607 464.35 315.125 466.704C315.955 467.479 316.803 468.114 317.013 468.114C317.223 468.114 319.768 470.516 322.666 473.449C325.564 476.382 328.219 478.784 328.562 478.784C328.909 478.784 330.177 479.77 331.387 480.98C332.592 482.186 333.872 483.175 334.229 483.175C334.583 483.175 334.875 483.459 334.875 483.802C334.875 484.149 335.299 484.43 335.815 484.43C336.335 484.43 336.759 484.692 336.759 485.016C336.759 485.337 337.393 485.799 338.168 486.042C338.946 486.286 340.384 487.156 341.368 487.979C343.19 489.503 348.065 491.96 349.267 491.96C349.628 491.96 349.927 492.222 349.927 492.543C349.927 492.864 351.479 493.318 353.374 493.554C355.273 493.794 356.826 494.237 356.826 494.543C356.826 494.849 357.656 495.097 358.67 495.097C359.684 495.097 360.687 495.381 360.9 495.724C361.136 496.104 365.598 496.351 372.188 496.351C378.781 496.351 383.242 496.104 383.478 495.724C383.689 495.381 384.695 495.097 385.709 495.097C386.723 495.097 387.553 494.853 387.553 494.554C387.553 494.259 388.751 493.846 390.219 493.643C391.683 493.44 394.294 492.558 396.019 491.68C397.745 490.802 399.508 490.082 399.939 490.079C400.37 490.079 400.721 489.795 400.721 489.451C400.721 489.105 401.1 488.824 401.565 488.824C402.03 488.824 402.896 488.282 403.494 487.625C404.091 486.964 405.264 486.252 406.101 486.042C406.938 485.832 407.62 485.385 407.62 485.046C407.62 484.706 408.044 484.43 408.56 484.43C409.08 484.43 409.5 484.149 409.5 483.802C409.5 483.459 409.795 483.175 410.149 483.175C410.507 483.175 411.761 482.256 412.937 481.135C415.717 478.485 416.89 477.526 417.343 477.526C417.55 477.526 419.832 475.408 422.417 472.822C425.006 470.232 427.469 468.114 427.893 468.114C428.317 468.114 429.073 467.549 429.571 466.859C430.065 466.169 430.836 465.605 431.274 465.605C431.717 465.605 432.078 465.394 432.082 465.136C432.089 464.572 435.124 463.096 436.278 463.096C436.728 463.096 437.093 462.812 437.093 462.469C437.093 462.088 439.708 461.841 443.679 461.841C447.65 461.841 450.265 462.088 450.265 462.469C450.265 462.812 450.63 463.096 451.079 463.096C452.234 463.096 455.268 464.572 455.276 465.136C455.279 465.394 455.825 465.605 456.489 465.605C457.61 465.605 461.268 468.966 468.606 476.751C470.247 478.489 471.585 480.102 471.585 480.334C471.585 480.567 472.828 482.076 474.347 483.692C479.152 488.802 481.589 491.632 481.604 492.115C481.611 492.377 482.05 492.588 482.581 492.588C483.108 492.588 483.702 493.012 483.901 493.528C484.1 494.045 484.657 494.469 485.136 494.469C485.616 494.469 486.01 494.754 486.01 495.097C486.01 495.443 486.327 495.724 486.718 495.724C487.109 495.724 487.917 496.288 488.514 496.978C489.126 497.683 492.271 499.052 495.723 500.115L501.84 502H526.391C549.301 502 551.237 501.915 555.319 500.712C557.726 500.008 560.584 499.196 561.672 498.912C562.763 498.628 564.297 497.794 565.083 497.06C565.872 496.325 566.757 495.724 567.052 495.724C567.347 495.724 568.269 495.089 569.098 494.314C571.278 492.274 572.454 491.333 572.815 491.333C572.989 491.333 575.19 489.352 577.701 486.935C580.216 484.515 582.764 482.378 583.369 482.186C583.97 481.994 584.464 481.452 584.464 480.987C584.464 480.519 585.382 479.936 586.503 479.688C587.624 479.445 588.996 478.714 589.556 478.072C590.113 477.427 590.865 476.899 591.226 476.899C591.591 476.899 591.979 476.689 592.097 476.43C592.469 475.589 602.432 472.508 604.77 472.508C606.02 472.508 607.042 472.224 607.042 471.881C607.042 471.534 608.31 471.254 609.863 471.254C611.415 471.254 612.683 470.97 612.683 470.626C612.683 470.28 614.236 469.999 616.135 469.999C618.03 469.999 619.583 469.715 619.583 469.368C619.583 469.025 620.007 468.741 620.523 468.741C621.043 468.741 621.463 468.461 621.463 468.114C621.463 467.771 621.957 467.487 622.562 467.487C624.018 467.487 631.755 464.793 632.02 464.192C632.134 463.933 632.772 463.723 633.432 463.723C634.092 463.723 634.634 463.439 634.634 463.096C634.634 462.749 635.059 462.469 635.575 462.469C636.091 462.469 636.515 462.232 636.515 461.945C636.515 461.66 637.293 461.022 638.241 460.535C641.006 459.103 643.075 457.262 648.613 451.281C650.265 449.495 651.84 448.034 652.113 448.034C652.386 448.034 652.987 447.33 653.448 446.466C653.908 445.603 654.661 444.898 655.122 444.898C655.579 444.898 655.955 444.614 655.955 444.271C655.955 442.817 661.87 443.599 663.168 445.223C665.557 448.208 677.357 459.956 677.969 459.956C678.308 459.956 679.189 460.524 679.931 461.214C680.672 461.904 681.645 462.469 682.099 462.469C682.552 462.469 682.921 462.749 682.921 463.096C682.921 463.439 683.345 463.723 683.861 463.723C684.378 463.723 684.802 463.97 684.802 464.269C684.802 464.572 685.893 464.992 687.228 465.206C688.563 465.42 690.465 466.018 691.461 466.538C692.457 467.055 693.747 467.483 694.33 467.483C694.912 467.486 695.565 467.771 695.775 468.114C695.989 468.461 696.712 468.741 697.383 468.741C698.05 468.741 698.6 469.025 698.6 469.368C698.6 469.722 700.377 469.999 702.674 469.999C704.975 469.999 706.753 470.272 706.753 470.626C706.753 470.97 708.305 471.254 710.2 471.254C712.096 471.254 713.648 471.534 713.648 471.881C713.648 472.29 726.819 472.508 751.905 472.508C776.987 472.508 790.158 472.29 790.158 471.881C790.158 471.534 791.71 471.254 793.606 471.254C795.505 471.254 797.053 470.97 797.053 470.626C797.053 470.272 798.831 469.999 801.132 469.999C803.429 469.999 805.206 469.722 805.206 469.368C805.206 469.025 806.139 468.741 807.279 468.741C808.414 468.741 809.697 468.39 810.129 467.959C810.697 467.391 813.897 467.173 821.648 467.173C829.679 467.173 832.449 467.372 832.644 467.959C832.788 468.39 833.588 468.741 834.421 468.741C835.255 468.741 835.937 469.025 835.937 469.368C835.937 469.715 837.205 469.999 838.758 469.999C840.31 469.999 841.579 470.28 841.579 470.626C841.579 470.97 843.131 471.254 845.03 471.254C846.925 471.254 848.478 471.534 848.478 471.881C848.478 472.257 851.092 472.508 855.063 472.508C859.035 472.508 861.646 472.257 861.646 471.881C861.646 471.534 862.918 471.254 864.47 471.254C866.022 471.254 867.291 470.97 867.291 470.626C867.291 470.28 868.283 469.999 869.496 469.999C870.705 469.999 872.188 469.73 872.785 469.405C874.607 468.413 882.188 465.605 883.077 465.597C883.534 465.59 885.038 465.18 886.417 464.682C889.308 463.642 894.884 463.42 894.884 464.35C894.884 464.693 895.71 464.977 896.72 464.977C897.73 464.977 898.98 465.402 899.497 465.918C900.017 466.435 900.739 466.859 901.104 466.859C901.473 466.859 902.579 467.708 903.568 468.741C904.559 469.778 905.688 470.626 906.082 470.626C906.477 470.626 906.798 470.844 906.798 471.11C906.798 471.375 907.775 472.121 908.966 472.763C910.157 473.405 911.65 474.386 912.288 474.943C913.641 476.128 915.29 477.106 918.918 478.869C920.356 479.57 922.838 480.806 924.427 481.614C926.016 482.422 928.347 483.278 929.608 483.515C930.865 483.751 932.053 484.194 932.241 484.5C932.429 484.806 933.697 485.057 935.054 485.057C936.415 485.057 937.529 485.341 937.529 485.684C937.529 486.068 940.453 486.311 945.054 486.311C949.653 486.311 952.577 486.068 952.577 485.684C952.577 485.341 953.853 485.057 955.409 485.057C956.965 485.057 958.727 484.791 959.328 484.463C959.926 484.138 962.323 483.267 964.649 482.529C966.98 481.792 968.882 480.961 968.882 480.685C968.882 480.404 969.933 479.98 971.213 479.74C973.175 479.371 976.497 477.6 977.662 476.298C977.835 476.106 979.034 475.39 980.328 474.711C981.622 474.032 982.681 473.29 982.681 473.062C982.681 472.833 983.385 472.468 984.248 472.25C985.111 472.032 985.815 471.578 985.815 471.239C985.815 470.903 986.125 470.626 986.505 470.626C986.884 470.626 987.983 469.778 988.949 468.741C989.915 467.708 990.889 466.859 991.11 466.859C992.002 466.859 997.729 461.413 997.729 460.565C997.729 460.229 998.171 459.956 998.714 459.956C999.842 459.956 1001.49 458.491 1001.49 457.491C1001.49 457.122 1002.06 456.82 1002.75 456.82C1003.44 456.82 1004 456.569 1004 456.259C1004 455.417 1007.53 451.802 1008.36 451.802C1009.07 451.802 1009.89 451.23 1012.2 449.134C1012.86 448.529 1013.81 448.034 1014.3 448.034C1014.78 448.034 1015.3 447.684 1015.45 447.252C1015.96 445.721 1025.41 446.226 1027.18 447.879C1028.01 448.654 1029.07 449.289 1029.53 449.289C1030.63 449.289 1032.9 450.595 1034.17 451.957C1034.73 452.562 1035.44 453.056 1035.74 453.056C1036.22 453.056 1037.23 453.801 1040.75 456.749C1041.14 457.07 1042.59 457.915 1043.99 458.628C1045.38 459.34 1046.62 460.159 1046.74 460.443C1047.02 461.122 1056.4 465.605 1057.53 465.605C1058.01 465.605 1059.42 466.029 1060.66 466.546C1061.9 467.062 1063.75 467.487 1064.77 467.487C1065.8 467.487 1066.81 467.771 1067.03 468.114C1067.24 468.461 1068.24 468.741 1069.26 468.741C1070.27 468.741 1071.1 469.025 1071.1 469.368C1071.1 470.209 1085.98 470.213 1086.26 469.372C1086.53 468.553 1101.83 467.715 1101.83 468.52C1101.83 468.848 1102.75 469.457 1103.87 469.866C1104.99 470.28 1106.47 471.35 1107.16 472.246C1109.86 475.755 1120.63 486.311 1121.51 486.311C1122.02 486.311 1122.62 486.876 1122.84 487.566C1123.06 488.26 1123.67 488.824 1124.2 488.824C1124.72 488.824 1125.95 489.669 1126.91 490.706C1127.88 491.739 1128.9 492.588 1129.18 492.588C1129.83 492.588 1137.2 497.716 1137.47 498.366C1137.58 498.639 1138.17 498.864 1138.77 498.864C1139.37 498.864 1141.94 499.569 1144.47 500.432L1149.08 502H1220.11L1223.21 500.465C1224.91 499.62 1227.06 498.65 1227.97 498.307C1228.89 497.967 1230.44 496.617 1231.42 495.314C1232.41 494.008 1234.41 491.75 1235.88 490.289C1237.34 488.831 1238.54 487.356 1238.54 487.009C1238.54 486.662 1239.25 485.614 1240.11 484.684C1240.97 483.754 1241.68 482.611 1241.68 482.142C1241.68 481.673 1241.96 481.293 1242.3 481.293C1242.65 481.293 1242.93 480.795 1242.93 480.19C1242.93 479.581 1243.49 478.733 1244.18 478.301C1244.87 477.869 1245.44 477.095 1245.44 476.582C1245.44 476.065 1245.71 475.644 1246.05 475.644C1246.39 475.644 1246.86 474.87 1247.1 473.918C1247.33 472.969 1248.04 471.826 1248.67 471.375C1249.31 470.922 1249.83 470.147 1249.83 469.649C1249.83 469.151 1250.08 468.741 1250.38 468.741C1250.68 468.741 1251.28 467.896 1251.71 466.859C1252.14 465.826 1252.72 464.977 1252.99 464.977C1253.27 464.977 1254.29 463.402 1255.26 461.476C1256.24 459.554 1257.51 457.473 1258.09 456.853C1258.66 456.237 1259.83 454.351 1260.69 452.669C1262.06 449.964 1262.77 448.946 1265.49 445.71C1265.84 445.293 1266.13 444.544 1266.13 444.049C1266.13 443.555 1266.56 442.987 1267.07 442.788C1267.59 442.588 1268.02 441.917 1268.02 441.29C1268.02 440.666 1268.58 439.747 1269.27 439.249C1269.96 438.751 1270.52 437.91 1270.52 437.378C1270.52 436.847 1271.09 436.061 1271.78 435.63C1272.47 435.198 1273.03 434.427 1273.03 433.91C1273.03 433.397 1273.31 432.977 1273.66 432.977C1274 432.977 1274.28 432.408 1274.28 431.718C1274.28 431.028 1274.83 429.914 1275.5 429.243C1276.18 428.571 1277.2 427.103 1277.78 425.981C1278.36 424.856 1279.23 423.542 1279.72 423.059C1280.2 422.572 1281.19 421.007 1281.91 419.576C1282.64 418.144 1283.42 416.834 1283.65 416.661C1283.88 416.487 1284.75 415.218 1285.57 413.834C1286.4 412.454 1287.58 410.868 1288.2 410.311C1288.83 409.754 1289.34 408.868 1289.34 408.344C1289.34 407.82 1290.04 406.931 1290.9 406.363C1291.77 405.798 1292.47 405.045 1292.47 404.695C1292.47 403.928 1294.6 401.817 1297.33 399.873C1299.49 398.338 1314.42 397.651 1314.42 399.09C1314.42 399.433 1315.97 399.718 1317.87 399.718C1319.76 399.718 1321.32 399.998 1321.32 400.345C1321.32 400.758 1336.27 400.972 1364.9 400.972C1393.54 400.972 1408.49 400.758 1408.49 400.345C1408.49 399.998 1410.04 399.718 1411.93 399.718C1413.83 399.718 1415.39 399.433 1415.39 399.09C1415.39 398.743 1416.92 398.463 1418.8 398.463C1420.67 398.463 1422.38 398.179 1422.59 397.836C1422.81 397.489 1423.67 397.209 1424.52 397.209C1425.36 397.209 1426.05 396.924 1426.05 396.581C1426.05 396.234 1426.82 395.943 1427.77 395.932C1428.72 395.921 1430.01 395.519 1430.65 395.035C1431.29 394.556 1432.91 393.973 1434.25 393.748C1435.6 393.519 1436.71 393.076 1436.71 392.759C1436.71 392.445 1437.13 392.187 1437.65 392.187C1438.16 392.187 1438.59 391.906 1438.59 391.56C1438.59 391.216 1438.98 390.932 1439.46 390.932C1439.95 390.932 1441.33 389.944 1442.54 388.737C1443.75 387.527 1445.08 386.542 1445.51 386.542C1447.29 386.542 1459.28 372.845 1459.28 370.82C1459.28 370.491 1459.56 370.226 1459.91 370.226C1460.25 370.226 1460.53 369.683 1460.53 369.023C1460.53 368.359 1460.76 367.724 1461.02 367.61C1461.66 367.333 1466.05 358.101 1466.57 355.932C1466.8 354.991 1467.51 353.176 1468.15 351.895C1468.79 350.615 1469.31 348.707 1469.31 347.659C1469.31 346.612 1469.6 345.752 1469.94 345.752C1470.29 345.752 1470.57 345.187 1470.57 344.497C1470.57 343.807 1470.85 343.243 1471.2 343.243C1471.54 343.243 1471.83 342.324 1471.84 341.202C1471.85 340.081 1472.47 336.48 1473.22 333.203C1474.47 327.698 1474.59 325.174 1474.78 300.346L1475 273.452L1473.5 270.854C1472.67 269.426 1471.63 266.718 1471.19 264.84C1470.4 261.486 1468.29 258.531 1466.67 258.531C1466.22 258.531 1465.52 257.985 1465.1 257.32C1464.35 256.114 1462.95 255.221 1458.5 253.085C1457.2 252.465 1456.15 251.742 1456.15 251.48C1456.15 251.214 1455.73 251 1455.22 251C1454.72 251 1452.81 250.336 1450.99 249.524C1449.17 248.712 1445.14 247.565 1442.03 246.975C1438.93 246.38 1436.12 245.631 1435.8 245.31C1435.47 244.989 1434.2 244.724 1432.97 244.72C1427.99 244.713 1427.47 236.396 1432.11 230.869C1432.57 230.327 1432.94 229.548 1432.94 229.146C1432.94 228.74 1433.23 228.408 1433.57 228.408C1433.92 228.408 1434.2 227.843 1434.2 227.153C1434.2 226.463 1434.48 225.899 1434.83 225.899C1435.17 225.899 1435.45 225.357 1435.45 224.696C1435.45 224.036 1435.66 223.401 1435.92 223.283C1436.76 222.914 1439.21 217.128 1439.21 215.527C1439.21 214.675 1439.5 213.977 1439.84 213.977C1440.19 213.977 1440.47 213.553 1440.47 213.037C1440.47 212.516 1440.75 212.096 1441.09 212.096C1441.44 212.096 1441.72 211.247 1441.72 210.21C1441.72 209.177 1442.01 208.329 1442.35 208.329C1442.69 208.329 1442.98 207.624 1442.98 206.76C1442.98 205.897 1443.26 205.192 1443.61 205.192C1443.95 205.192 1444.23 204.628 1444.23 203.938C1444.23 203.248 1444.5 202.683 1444.82 202.683C1445.14 202.683 1445.6 201.41 1445.83 199.857C1446.07 198.304 1446.5 197.034 1446.81 197.034C1447.12 197.034 1447.37 196.47 1447.37 195.78C1447.37 195.09 1447.65 194.525 1447.99 194.525C1448.34 194.525 1448.62 194.101 1448.62 193.584C1448.62 193.064 1448.9 192.64 1449.25 192.64C1449.59 192.64 1449.87 192.075 1449.87 191.385C1449.87 190.695 1450.16 190.131 1450.5 190.131C1450.85 190.131 1451.13 189.566 1451.13 188.876C1451.13 188.186 1451.37 187.622 1451.66 187.622C1451.95 187.622 1452.71 185.784 1453.35 183.545C1453.99 181.301 1454.74 179.464 1455.02 179.464C1455.29 179.464 1455.52 178.759 1455.52 177.896C1455.52 177.032 1455.8 176.328 1456.15 176.328C1456.49 176.328 1456.77 175.055 1456.77 173.501C1456.77 171.948 1457.06 170.679 1457.4 170.679C1457.75 170.679 1458.03 169.266 1458.03 167.542C1458.03 165.816 1458.31 164.402 1458.65 164.402C1459.05 164.402 1459.28 160.222 1459.28 153.108C1459.28 146.899 1459.04 141.814 1458.74 141.814C1458.44 141.814 1458.02 140.548 1457.81 139.003C1457.6 137.46 1457.14 135.623 1456.79 134.925C1456.43 134.228 1455.86 133.095 1455.52 132.409C1455.17 131.723 1454.89 130.594 1454.89 129.9C1454.89 129.206 1454.64 128.638 1454.33 128.638C1454.03 128.638 1453.59 127.908 1453.37 127.015C1452.81 124.775 1450.12 120.643 1448.61 119.702C1447.93 119.274 1447.37 118.543 1447.37 118.082C1447.37 117.13 1443.54 113.411 1440.15 111.068C1438.9 110.204 1437.5 109.145 1437.03 108.714C1436.56 108.282 1435.73 107.928 1435.18 107.928C1434.64 107.928 1434.2 107.647 1434.2 107.301C1434.2 106.957 1433.63 106.673 1432.94 106.673C1432.25 106.673 1431.69 106.397 1431.69 106.057C1431.69 105.721 1430.98 105.264 1430.12 105.05C1429.26 104.832 1428.55 104.404 1428.55 104.094C1428.55 103.788 1427.7 103.537 1426.66 103.537C1425.63 103.537 1424.28 103.286 1423.69 102.984C1420.04 101.128 1404.08 99.5337 1403.21 100.936C1402.97 101.331 1401.39 101.655 1399.71 101.655C1398.02 101.655 1396.47 101.936 1396.26 102.283C1396.05 102.626 1394.9 102.91 1393.71 102.91C1392.52 102.91 1391.55 103.153 1391.55 103.452C1391.55 103.755 1390.36 104.161 1388.9 104.356C1387.44 104.552 1386.15 105.009 1386.03 105.378C1385.91 105.747 1384.98 106.046 1383.98 106.046C1382.97 106.046 1382.15 106.33 1382.15 106.673C1382.15 107.02 1381.44 107.301 1380.58 107.301C1379.72 107.301 1379.01 107.548 1379.01 107.847C1379.01 108.149 1377.61 108.581 1375.9 108.806C1374.19 109.035 1372.62 109.496 1372.42 109.828C1372.21 110.164 1371.49 110.44 1370.81 110.44C1370.14 110.44 1369.1 110.706 1368.5 111.031C1367.9 111.356 1365.01 112.182 1362.08 112.868C1359.15 113.551 1355.34 114.447 1353.61 114.861C1351.89 115.27 1347.09 115.754 1342.95 115.931C1338.81 116.112 1335.28 116.488 1335.1 116.768C1334.91 117.049 1307.69 117.558 1274.59 117.901C1233.27 118.325 1214.35 118.728 1214.2 119.185C1214.07 119.561 1212.23 119.853 1209.95 119.853C1207.69 119.853 1205.93 120.126 1205.93 120.48C1205.93 120.823 1204.94 121.107 1203.74 121.107C1202.53 121.107 1201.54 121.388 1201.54 121.735C1201.54 122.078 1200.41 122.362 1199.03 122.362C1197.65 122.362 1196.52 122.642 1196.52 122.989C1196.52 123.332 1195.82 123.616 1194.96 123.616C1194.09 123.616 1193.39 123.901 1193.39 124.244C1193.39 124.59 1192.93 124.871 1192.38 124.871C1191.38 124.871 1183.33 128.483 1182.73 129.203C1181.8 130.31 1177.18 133.538 1175.98 133.922C1175.2 134.169 1174.57 134.63 1174.57 134.955C1174.57 135.276 1174.17 135.538 1173.68 135.538C1173.18 135.538 1172.6 136.102 1172.38 136.792C1172.16 137.486 1171.65 138.051 1171.24 138.054C1170.39 138.065 1165.94 142.235 1164.54 144.338C1163.19 146.371 1160.82 148.718 1160.12 148.718C1159.79 148.718 1159.52 149.16 1159.52 149.703C1159.52 150.245 1159.1 151.112 1158.58 151.629C1158.06 152.149 1157.64 153.097 1157.64 153.739C1157.64 154.381 1157.09 155.082 1156.43 155.293C1155.76 155.503 1155.13 156.045 1155.02 156.499C1154.75 157.621 1151.79 161.222 1147.33 165.86L1143.6 169.738L1134.16 169.62C1128.97 169.557 1119.07 169.173 1112.18 168.771C1089.71 167.458 958.222 168.587 958.222 170.092C958.222 170.417 956.954 170.679 955.401 170.679C953.849 170.679 952.577 170.926 952.577 171.225C952.577 171.524 951.511 171.911 950.206 172.088C948.9 172.262 946.434 173.025 944.719 173.785C943.004 174.542 940.615 175.586 939.409 176.099C936.028 177.545 934.11 178.486 933.764 178.87C933.594 179.058 932.462 179.689 931.256 180.272C930.05 180.851 928.037 182.25 926.78 183.375C925.526 184.504 923.904 185.84 923.173 186.349C922.447 186.854 921.85 187.71 921.85 188.249C921.85 188.788 921.263 189.644 920.544 190.149C919.029 191.223 916.197 195.248 914.91 198.156C914.42 199.263 913.841 200.171 913.623 200.171C913.405 200.171 913.063 200.986 912.867 201.979C912.668 202.971 912.085 204.203 911.577 204.716C910.714 205.58 908.999 210.738 908.236 214.76C908.059 215.712 907.661 216.486 907.354 216.486C907.048 216.486 906.798 218.04 906.798 219.936C906.798 221.837 906.517 223.39 906.171 223.39C905.802 223.39 905.544 225.689 905.544 229.035C905.544 232.382 905.29 234.684 904.917 234.684C904.574 234.684 904.29 235.71 904.29 236.964C904.29 239.968 901.775 242.492 899.349 241.927C895.691 241.075 891.123 238.042 891.123 236.47C891.123 236.178 890.684 235.939 890.153 235.939C889.323 235.939 888.206 235.108 885.407 232.4C885.097 232.105 884.028 230.943 883.029 229.821C882.029 228.699 880.883 227.781 880.477 227.781C880.075 227.781 879.349 227.43 878.869 226.998C876.841 225.176 876.093 224.644 875.562 224.644C875.256 224.644 874.116 223.796 873.032 222.763C871.952 221.726 870.779 220.881 870.433 220.881C870.086 220.881 869.798 220.626 869.798 220.32C869.798 220.014 869.094 219.582 868.231 219.368C867.368 219.15 866.664 218.697 866.664 218.357C866.664 218.018 866.203 217.741 865.639 217.741C864.54 217.741 862.785 215.966 861.144 213.192C860.584 212.243 859.901 211.468 859.632 211.468C859.359 211.468 859.138 211.04 859.138 210.517C859.138 209.996 858.891 209.078 858.585 208.476C857.283 205.919 856.679 204.089 856.299 201.584C856.074 200.115 855.635 198.916 855.322 198.916C855.008 198.916 854.75 198.211 854.75 197.348C854.75 196.485 854.466 195.78 854.123 195.78C853.777 195.78 853.496 195.344 853.496 194.813C853.496 194.278 853.216 193.503 852.877 193.086C850.027 189.588 849.105 188.304 849.105 187.84C849.105 187.541 848.4 186.533 847.538 185.604C846.675 184.674 845.97 183.619 845.97 183.257C845.97 182.895 845.591 182.6 845.13 182.6C844.669 182.6 843.231 181.456 841.933 180.054C840.638 178.652 838.968 177.239 838.227 176.918C836.239 176.051 834.517 174.9 833.363 173.66C832.799 173.055 831.597 172.56 830.69 172.56C829.779 172.56 829.038 172.28 829.038 171.933C829.038 171.59 828.64 171.306 828.149 171.306C827.659 171.306 827.168 171.077 827.05 170.797C826.707 169.956 814.823 167.07 809.284 166.483C807.559 166.299 805.947 165.827 805.7 165.432C805.372 164.904 788.735 164.716 742.207 164.716C707.531 164.716 679.16 164.506 679.16 164.248C679.16 163.989 678.441 163.775 677.563 163.775C675.487 163.775 669.783 161.167 669.764 160.211C669.757 159.801 669.189 159.289 668.5 159.071C667.806 158.849 667.242 158.285 667.242 157.816C667.242 157.344 666.678 156.78 665.988 156.562C665.299 156.34 664.735 155.916 664.735 155.617C664.735 155.322 664.241 154.916 663.636 154.721C663.035 154.525 662.058 153.518 661.468 152.477C660.878 151.437 659.679 150.315 658.802 149.983C657.928 149.647 657.209 149.153 657.209 148.88C657.209 148.356 656.449 147.895 652.286 145.902C650.855 145.216 649.683 144.441 649.683 144.175C649.683 143.914 649.119 143.696 648.429 143.696C647.74 143.696 647.175 143.415 647.175 143.069C647.175 142.725 646.563 142.441 645.815 142.441C645.066 142.441 643.967 142.002 643.37 141.46C642.776 140.921 640.708 140.32 638.775 140.12C636.843 139.918 635.261 139.556 635.261 139.309C635.261 138.67 627.197 137.423 623.067 137.423C621.105 137.423 619.583 137.139 619.583 136.778C619.583 134.955 567.104 136.844 559.699 138.936C557.97 139.423 555.385 140.006 553.951 140.235C552.516 140.464 550.824 141.043 550.189 141.526C549.555 142.006 548.541 142.412 547.936 142.423C547.332 142.434 546.838 142.725 546.838 143.069C546.838 143.415 546.299 143.696 545.635 143.696C544.975 143.696 544.341 143.91 544.227 144.168C544.113 144.426 542.379 145.482 540.381 146.511C538.382 147.541 536.144 149.024 535.41 149.806C534.676 150.588 533.825 151.227 533.515 151.227C532.807 151.227 531.162 152.846 531.162 153.54C531.162 153.824 530.244 154.949 529.123 156.042C526.476 158.617 525.517 159.816 525.517 160.565C525.517 160.901 524.813 161.731 523.95 162.41C523.087 163.089 522.383 164.096 522.383 164.65C522.383 165.207 522.099 165.661 521.756 165.661C521.409 165.661 521.129 166.225 521.129 166.915C521.129 167.605 520.904 168.17 520.631 168.17C520.355 168.17 519.813 169.229 519.418 170.524C517.991 175.232 517.047 177.582 516.582 177.582C516.324 177.582 516.11 178.571 516.11 179.778C516.11 180.984 515.827 181.973 515.484 181.973C515.137 181.973 514.857 182.962 514.857 184.172C514.857 185.379 514.573 186.367 514.23 186.367C513.883 186.367 513.603 187.496 513.603 188.876C513.603 190.256 513.352 191.385 513.046 191.385C512.744 191.385 512.382 194.142 512.242 197.507C511.988 203.724 510.926 206.447 508.758 206.447C508.319 206.447 507.958 206.731 507.958 207.074C507.958 207.447 505.553 207.701 501.999 207.701C498.448 207.701 496.044 207.447 496.044 207.074C496.044 206.731 495.055 206.447 493.85 206.447C492.64 206.447 491.652 206.233 491.652 205.967C491.652 205.502 487.113 203.31 486.143 203.31C485.877 203.31 485.251 202.746 484.756 202.056C484.259 201.362 483.477 200.798 483.023 200.798C482.566 200.798 481.571 200.211 480.811 199.495C480.048 198.78 477.909 197.448 476.062 196.533C474.211 195.621 472.555 194.514 472.385 194.071C472.216 193.632 471.832 193.271 471.53 193.271C471.224 193.271 469.601 192.422 467.92 191.385C466.238 190.352 464.398 189.504 463.834 189.504C463.27 189.504 462.805 189.223 462.805 188.876C462.805 188.533 462.241 188.249 461.552 188.249C460.862 188.249 460.298 187.965 460.298 187.622C460.298 187.275 459.874 186.995 459.358 186.995C458.841 186.995 458.417 186.71 458.417 186.367C458.417 186.021 457.853 185.74 457.164 185.74C456.474 185.74 455.906 185.441 455.906 185.08C455.906 184.718 454.955 184.021 453.793 183.537C452.551 183.017 451.518 182.058 451.293 181.213C450.722 179.084 450.81 169.424 451.4 169.424C451.677 169.424 452.223 167.801 452.606 165.816C452.99 163.831 453.627 160.938 454.022 159.384C454.417 157.831 454.892 154.794 455.084 152.64C455.272 150.481 455.652 148.718 455.928 148.718C456.205 148.718 456.6 146.67 456.806 144.168C458.875 119.067 459.055 117.34 459.66 117.34C459.94 117.34 460.298 116.281 460.464 114.99C460.91 111.437 462.415 106.046 462.953 106.046C463.218 106.046 463.432 105.201 463.432 104.164C463.432 103.127 463.716 102.283 464.059 102.283C464.406 102.283 464.686 101.574 464.686 100.714C464.686 99.851 464.97 99.1426 465.313 99.1426C465.659 99.1426 465.943 98.578 465.943 97.888C465.943 97.1981 466.194 96.6335 466.5 96.6335C466.806 96.6335 467.241 95.6447 467.466 94.4382C467.695 93.228 468.148 92.2428 468.48 92.2428C468.808 92.2428 469.078 91.6783 469.078 90.9846C469.078 90.2946 469.358 89.7301 469.705 89.7301C470.047 89.7301 470.331 89.1656 470.331 88.4756C470.331 87.7856 470.615 87.2211 470.958 87.2211C471.305 87.2211 471.585 86.7968 471.585 86.2802C471.585 85.7637 471.869 85.3393 472.212 85.3393C472.559 85.3393 472.839 84.4907 472.839 83.4576C472.839 82.4208 473.09 81.5722 473.396 81.5722C473.702 81.5722 474.14 80.3029 474.376 78.7495C474.609 77.1961 475.062 75.9269 475.387 75.9269C475.711 75.9269 475.977 75.0783 475.977 74.0451C475.977 73.0083 476.257 72.1597 476.604 72.1597C476.947 72.1597 477.23 71.1746 477.23 69.9643C477.23 68.7578 477.511 67.7689 477.857 67.7689C478.2 67.7689 478.484 66.4997 478.484 64.9463C478.484 63.3929 478.764 62.12 479.111 62.12C479.502 62.12 479.738 58.4487 479.738 52.357C479.738 41.9409 478.986 37.9155 475.903 31.8533C475.597 31.2519 475.35 30.2187 475.35 29.5509C475.35 28.8867 475.136 28.2484 474.878 28.1304C474.62 28.016 473.421 25.8796 472.212 23.3817C471.006 20.8875 469.657 18.8397 469.214 18.8323C468.772 18.8286 468.222 18.3305 467.99 17.7254C467.518 16.4893 461.08 9.90319 459.656 9.19476C457.724 8.23544 455.877 7.06949 454.815 6.13969C454.21 5.61206 452.654 4.9885 451.36 4.75604C450.069 4.52359 449.011 4.06607 449.011 3.73399C449.011 3.40561 448.037 3.13625 446.854 3.13625C445.666 3.13625 444.531 2.87059 444.328 2.5459C444.129 2.2212 442.702 1.76369 441.157 1.53123C439.612 1.29878 438.351 0.859708 438.351 0.553462C438.351 0.247216 433.974 0 428.627 0C422.568 0 418.907 0.236135 418.907 0.627244ZM427.631 51.1099C429.763 52.2131 431.37 55.5523 430.286 56.6334C429.892 57.0282 429.571 57.9026 429.571 58.5779C429.571 60.847 423.962 67.1638 419.342 70.0935C417.897 71.0122 415.161 72.7427 413.265 73.9381C406.307 78.3215 404.626 81.8968 407.306 86.5938C408.612 88.8815 408.438 91.6303 406.834 94.0729C402.601 100.511 402.395 102.452 405.035 110.754C407.771 119.34 409.441 141.002 407.465 142.224C407.196 142.39 407.133 142.788 407.328 143.102C407.756 143.799 405.972 151.308 404.648 154.363C395.068 176.516 384.511 186.334 359.503 196.352C348.024 200.945 347.213 201.362 347.969 202.274C348.773 203.244 353.094 204.244 360.587 205.189C374.278 206.919 375.436 207.166 377.118 208.727C379.485 210.922 379.85 213.062 378.228 215.258C377.494 216.25 376.893 217.365 376.893 217.73C376.893 218.099 375.904 219.837 374.699 221.593C373.489 223.349 372.501 225.032 372.501 225.331C372.501 225.633 371.62 227.648 370.543 229.81C368.714 233.485 366.232 241.145 365.005 246.919C363.655 253.284 362.327 260.623 361.49 266.371C359.698 278.677 358.585 281.3 354.315 283.233C353.212 283.735 340.575 283.986 311.452 284.089L270.157 284.233L267.609 285.657C261.886 288.853 262.521 275.618 262.211 397.836C262.133 428.198 261.875 433.604 260.504 433.604C260.043 433.604 259.379 434.139 259.029 434.796C257.362 437.913 194.411 438.22 192.106 435.12C191.457 434.246 191.35 434.264 191.129 435.283C189.857 441.116 189.304 418.878 189.193 357.673L189.075 291.472L187.6 289.1C184.458 284.045 186.855 284.285 137.208 284.056C102.1 283.897 92.5943 283.68 90.5146 283.001L87.9002 282.145L87.4835 275.828C86.5359 261.545 87.384 210.181 88.5787 209.306C89.1834 208.867 89.6775 208.214 89.6775 207.86C89.6775 206.454 95.3709 206.244 137.138 206.096C184.304 205.93 183.621 205.982 186.815 202.344C189.459 199.333 189.392 200.469 189.591 154.99C189.765 115.757 189.96 111.068 191.428 111.068C191.782 111.068 192.431 110.573 192.873 109.968C193.614 108.953 195.926 108.854 223.043 108.677C254.655 108.47 255.813 108.537 257.823 110.625C261.923 114.894 261.816 113.621 261.846 157.189C261.879 200.506 261.831 199.931 265.607 203.248C268.66 205.934 269.903 206.048 295.995 206.052C319.624 206.056 326.497 205.561 334.443 203.285C338.138 202.229 337.12 201.436 326.361 196.983C308.543 189.607 302.437 185.998 294.69 178.254C269.136 152.71 269.689 109.315 295.903 83.5904C314.476 65.3596 336.457 58.3786 375.34 58.3639C395.072 58.3528 404.567 57.0466 418.28 52.4493C425.99 49.8665 425.393 49.955 427.631 51.1099ZM335.022 107.968C318.164 111.293 310.464 131.708 320.778 145.733C329.377 157.425 345.778 158.816 356.406 148.762C373.788 132.313 358.588 103.319 335.022 107.968ZM1408.36 154.569C1410.71 157.558 1407.83 169.594 1404.46 170.885C1403.91 171.096 1403.47 171.675 1403.47 172.169C1403.47 175.287 1392.14 183.028 1379.6 188.478C1371.56 191.972 1372.26 196.433 1381.58 201.137C1394.33 207.58 1387.68 213.387 1365.44 215.21C1354.81 216.081 1352.43 217.497 1346.66 226.419C1344.72 229.412 1342.61 232.433 1341.97 233.134C1341.32 233.832 1340.16 235.562 1339.37 236.979C1338.58 238.392 1336.6 241.506 1334.96 243.894C1333.32 246.285 1331.98 248.454 1331.98 248.716C1331.98 248.978 1330.19 251.93 1328 255.273C1325.81 258.616 1321.07 265.87 1317.46 271.393C1313.84 276.917 1309.67 283.654 1308.18 286.37C1306.69 289.085 1303.86 293.461 1301.88 296.096C1299.9 298.73 1296.09 304.416 1293.41 308.729C1286.4 320.012 1284.34 323.16 1282.13 325.986C1281.05 327.366 1279.11 330.333 1277.83 332.576C1275.24 337.111 1272.64 341.35 1269.58 346.065C1268.46 347.792 1264.49 354.002 1260.77 359.872C1253.34 371.565 1247.03 381.313 1241.31 389.955C1239.27 393.039 1237.09 396.389 1236.47 397.4C1235.85 398.408 1234.93 399.655 1234.42 400.168C1233.91 400.677 1233.11 402.005 1232.65 403.116C1231.9 404.887 1228.01 411.17 1222.93 418.797C1219.51 423.929 1219.11 424.553 1218.1 426.387C1217.53 427.42 1215.32 430.811 1213.19 433.917C1211.06 437.021 1208.39 441.256 1207.24 443.33C1200.9 454.805 1190.94 468.114 1188.71 468.114C1188.32 468.114 1187.69 468.42 1187.31 468.796C1186.15 469.959 1170.74 460.911 1152.31 448.248C1143.16 441.961 1143.2 440.006 1152.73 425.446C1154.65 422.513 1162.94 409.665 1171.15 396.895C1179.36 384.125 1188.39 370.144 1191.22 365.831C1201.82 349.696 1201.49 347.685 1186.63 337.69C1172.26 328.023 1168.95 328.207 1160.83 339.107C1152.27 350.593 1153.24 350.726 1129.17 334.786C1105.21 318.928 1105.42 321.732 1125.98 290.532C1201.31 176.272 1205.98 169.45 1209.52 168.465C1210.48 168.199 1241.03 167.782 1277.42 167.542C1321 167.251 1345.83 166.849 1350.16 166.362C1369.35 164.218 1382.04 161.329 1395.57 156.031C1404.53 152.525 1406.58 152.293 1408.36 154.569ZM623.646 187.935C625.257 189.909 625.693 193.075 624.62 195.005C623.819 196.437 620.217 206.783 619.538 209.583C615.807 225.032 614.863 234.942 614.973 257.494C615.11 285.229 613.694 283.108 639.978 294.911C665.789 306.501 667.611 308.331 663.558 318.607C659.056 330.019 656.114 336.524 650.734 346.977C647.994 352.301 645.11 352.308 633.381 347.036C622.754 342.261 619.217 342.224 616.334 346.862L614.881 349.202L614.826 380.265C614.778 410.344 614.398 419.797 613.24 419.797C612.934 419.797 612.683 420.192 612.683 420.671C612.683 424.87 587.274 424.261 580.507 419.904C570.522 413.469 569.415 413.351 569.412 418.697C569.404 426.579 568.851 427.331 550.58 444.322C525.24 467.892 526.365 467.516 515.528 455.982C507.102 447.012 506.601 444.319 512.017 437.054C516.306 431.301 517.25 426.21 514.595 423.125L513.076 421.365L507.224 424.365C498.168 429.003 491.468 428.287 489.782 422.498C487.894 416.015 486.785 400.529 487.913 396.456C489.941 389.158 502.511 386.711 507.08 392.726C508.256 394.275 512.663 393.283 514.547 391.043C521.686 382.553 532.763 385.398 534.92 396.275C536.727 405.367 539.19 407.174 547.571 405.558C552.881 404.533 553.029 404.54 558.062 405.975C564.356 407.769 564.19 407.957 562.786 400.518C561.694 394.747 561.613 388.501 561.406 294.926C561.178 193.359 561.277 188.249 563.475 188.249C563.91 188.249 564.419 187.843 564.607 187.349C565.131 185.987 567.033 185.902 595.603 185.98L622.108 186.054L623.646 187.935ZM805.984 214.878C806.928 215.151 807.544 215.63 807.352 215.94C807.161 216.25 807.419 217.335 807.927 218.35C808.68 219.859 808.698 220.324 808.034 220.874C807.588 221.246 807.087 222.46 806.921 223.567C806.755 224.678 805.575 228.552 804.299 232.175C801.924 238.924 800.438 247.399 799.008 262.353C797.787 275.12 795.792 277.016 782.628 277.931C772.514 278.636 769.291 280.595 769.291 286.052C769.291 290.797 772.54 293.317 780.021 294.365C791.614 295.992 792.168 297.073 792.481 318.769C792.846 343.999 792.245 345.435 780.714 347.01C772.329 348.154 769.095 350.441 768.388 355.732C767.455 362.702 771.588 365.403 783.886 365.85C800.405 366.451 800.575 366.735 800.324 393.087C800.051 421.542 799.952 421.904 792.039 422.896C779.523 424.472 707.298 423.435 705.149 421.653C704.761 421.328 704.304 421.203 704.135 421.372C703.965 421.542 703.777 421.328 703.722 420.897C703.663 420.465 703.357 418.417 703.043 416.347C702.726 414.277 702.442 399.865 702.416 384.32C702.35 348.862 702.228 348.497 690.222 347.361C678.562 346.254 678.846 346.91 678.846 320.935V301.416L680.594 299.118C682.836 296.181 683.832 295.679 689.595 294.576C698.032 292.959 700.48 290.915 700.48 285.495C700.48 280.145 696.177 277.99 685.48 277.987C673.33 277.979 669.086 276.57 667.81 272.12C666.969 269.187 667.091 223.098 667.95 218.815L668.662 215.284L671.556 214.904C673.153 214.697 674.879 214.431 675.395 214.313C677.412 213.863 804.365 214.413 805.984 214.878ZM1121.76 219.043C1124.22 219.899 1126.37 225.08 1124.76 226.26C1124.25 226.633 1123.72 227.928 1123.59 229.138C1123.46 230.345 1122.92 232.16 1122.39 233.168C1120 237.706 1117.27 244.598 1115.07 251.627C1113.93 255.251 1112.75 258.704 1112.43 259.306C1112.12 259.903 1111.86 261.202 1111.86 262.191C1111.86 263.18 1111.62 264.807 1111.32 265.811C1110.3 269.179 1109.45 273.869 1108.7 280.178C1107.43 291.019 1105.69 295.804 1101.42 300.269C1098.18 303.652 1084.05 316.784 1077.06 322.913C1056.65 340.793 1056.57 340.177 1082.39 362.097C1112.99 388.077 1112.6 387.268 1100.94 400.367C1098.15 403.496 1094.93 407.245 1093.77 408.691C1092.62 410.141 1089.33 413.797 1086.46 416.816C1078.11 425.601 1080.26 426.601 1048.93 399.404C1018.78 373.244 1019.85 373.528 1004.94 387.708C1002.87 389.678 996.663 395.312 991.147 400.23C985.627 405.145 978.713 411.392 975.782 414.107C972.85 416.827 968.053 421.092 965.121 423.594C962.19 426.092 958.237 429.53 956.342 431.231C954.443 432.932 952.326 434.829 951.636 435.441C948.782 437.984 944.966 438.936 942.591 437.699C939.992 436.345 920.05 414.82 916.363 409.392C912.882 404.267 915.017 400.131 926.411 389.903C949.844 368.86 968.93 351.526 976.408 344.49C986.818 334.694 998.201 324.329 1008.1 315.633C1028.46 297.741 1030.38 294.457 1022.81 290.502C1021.59 289.86 1014.63 289.672 991.147 289.635C957.99 289.587 958.392 289.631 955.715 285.705L954.148 283.407V253.553C954.148 220.088 954.137 220.173 958.123 219.11C961.46 218.221 1119.22 218.154 1121.76 219.043ZM418.966 223.965C424.099 225.785 446.872 236.297 449.059 237.857C451.54 239.625 452.134 241.307 452.396 247.31C452.872 258.121 450.187 257.523 500.015 257.903C546.288 258.254 541.933 257.774 544.083 262.744C545.318 265.597 545.186 267.364 543.323 272.85C540.233 281.953 538.674 288.351 537.413 297.121C536.122 306.08 535.853 307.464 534.968 309.67C532.825 315.005 531.708 315.847 525.83 316.548C517.427 317.544 515.115 319.714 506.722 334.476C500.627 345.202 497.08 351.261 486.335 369.285C471.069 394.899 470.095 396.548 467.529 401.286C466.592 403.012 465.464 404.846 465.018 405.367C464.575 405.883 463.742 407.233 463.167 408.366C462.507 409.676 461.102 410.923 459.317 411.794L456.511 413.159L451.662 410.765C448.996 409.447 442.3 405.669 436.78 402.363C419.36 391.932 418.004 389.139 424.637 377.406C426.381 374.318 430.5 366.994 433.786 361.127C437.075 355.26 442.739 345.375 446.374 339.166C457.58 320.027 456.198 316.485 437.609 316.688C427.145 316.802 424.383 317.585 421.105 321.348C419.117 323.628 418.888 324.045 413.91 334.458C406.09 350.81 405.643 350.973 389.153 343.582C363.703 332.174 361.572 329.797 366.586 318.455C367.044 317.422 370.289 310.22 373.795 302.453C377.306 294.69 381.295 285.794 382.667 282.687C385.945 275.256 391.499 262.947 403.339 236.879C409.847 222.556 411.392 221.279 418.966 223.965ZM1228.5 247.816C1222.34 248.664 1218.23 251.926 1213.43 259.763C1212.06 262.018 1209.39 266.227 1207.52 269.12C1200.7 279.621 1201.98 283.565 1215.02 292.244C1231.01 302.881 1231.84 302.549 1246.78 279.385C1263.34 253.694 1263.83 252.262 1257.19 248.672C1254.94 247.451 1235.38 246.871 1228.5 247.816ZM849.422 266.371C852.416 269.135 856.284 273.087 858.017 275.157C859.746 277.23 864.308 282.322 868.146 286.477C886.819 306.67 886.878 306.028 864.47 326.307C849.293 340.04 849.083 339.992 829.735 318.455C804.148 289.974 804.439 292.111 823.717 274.522C841.033 258.715 841.096 258.697 849.422 266.371ZM929.132 295.321C931.832 297.151 934.866 300.173 945.995 312.105C963.385 330.764 963.414 330.572 940.652 350.157C930.113 359.223 917.535 370.488 905.979 381.206C901.514 385.346 895.677 390.711 893.007 393.128C890.337 395.545 885.075 400.345 881.318 403.795C875.13 409.477 867.767 416.1 863.095 420.188C855.023 427.25 853.633 426.675 838.54 410.023C817.349 386.645 817.065 388.969 844.057 364.99C851.107 358.721 860.856 349.925 865.713 345.438C870.573 340.952 878.475 333.753 883.268 329.436C888.062 325.123 897.432 316.585 904.087 310.46C922.842 293.207 924.512 292.196 929.132 295.321ZM1429.48 294.218C1430.83 294.505 1431.76 295.35 1432.78 297.206L1434.21 299.789L1430.54 307.239C1425.66 317.193 1423.4 323.632 1421.35 333.517C1418.76 345.992 1417.28 350.209 1415.35 350.681C1411.14 351.718 1400.84 351.987 1365.22 351.995C1320.72 352.002 1316.5 351.766 1313.85 349.121L1312.22 347.493L1312.02 326.89C1311.74 299.32 1312.4 296.572 1319.77 294.59C1323.07 293.705 1425.47 293.358 1429.48 294.218ZM321.796 311.452C323.783 312.998 396.948 386.335 404.622 394.474C416.894 407.488 416.621 408.359 392.937 432.121C375.101 450.012 372.368 451.886 368.426 448.942C363.832 445.507 277.621 358.308 276.47 355.928C273.454 349.696 274.59 347.907 294.085 328.17C314.019 307.991 315.888 306.862 321.796 311.452ZM142.142 312.393C146.758 316.053 173.758 344.073 175.48 346.988C179.646 354.046 181.254 352.05 129.97 403.481C79.0357 454.565 81.7865 452.285 76.13 448.112C69.0908 442.913 38.4153 410.72 38.0945 408.189C37.6078 404.396 37.1542 404.894 84.8028 356.909C136.625 304.722 134.524 306.353 142.142 312.393Z" fill="white"/>
<path fill-rule="evenodd" clip-rule="evenodd" d="M418.28 52.4493C404.567 57.0466 395.072 58.3528 375.34 58.3639C336.457 58.3786 314.476 65.3596 295.903 83.5904C275.548 103.567 269.999 136.032 282.591 161.458C290.895 178.217 301.165 186.556 326.361 196.983C337.12 201.436 338.138 202.229 334.443 203.285C326.497 205.561 319.624 206.056 295.995 206.052C269.903 206.048 268.66 205.934 265.607 203.248C261.831 199.931 261.879 200.506 261.846 157.189C261.816 113.621 261.923 114.894 257.823 110.625C255.813 108.537 254.655 108.47 223.043 108.677C195.926 108.854 193.614 108.953 192.873 109.968C192.431 110.573 191.782 111.068 191.428 111.068C189.96 111.068 189.765 115.757 189.591 154.99C189.392 200.469 189.459 199.333 186.815 202.344C183.621 205.982 184.304 205.93 137.138 206.096C95.3709 206.244 89.6775 206.454 89.6775 207.86C89.6775 208.214 89.1834 208.867 88.5787 209.306C87.384 210.181 86.5359 261.545 87.4835 275.828L87.9002 282.145L90.5146 283.001C92.5943 283.68 102.1 283.897 137.208 284.056C186.855 284.285 184.458 284.045 187.6 289.1L189.075 291.472L189.193 357.673C189.304 418.878 189.857 441.116 191.129 435.283C191.35 434.264 191.457 434.246 192.106 435.12C193.279 436.696 202.523 437.194 228.268 437.061C254.088 436.928 258.044 436.637 259.029 434.796C259.379 434.139 260.043 433.604 260.504 433.604C261.875 433.604 262.133 428.198 262.211 397.836C262.521 275.618 261.886 288.853 267.609 285.657L270.157 284.233L311.452 284.089C340.575 283.986 353.212 283.735 354.315 283.233C358.585 281.3 359.698 278.677 361.49 266.371C362.327 260.623 363.655 253.284 365.005 246.919C366.232 241.145 368.714 233.485 370.543 229.81C371.62 227.648 372.501 225.633 372.501 225.331C372.501 225.032 373.489 223.349 374.699 221.593C375.904 219.837 376.893 218.099 376.893 217.73C376.893 217.365 377.494 216.25 378.228 215.258C379.85 213.062 379.485 210.922 377.118 208.727C375.436 207.166 374.278 206.919 360.587 205.189C353.094 204.244 348.773 203.244 347.969 202.274C347.213 201.362 348.024 200.945 359.503 196.352C384.511 186.334 395.068 176.516 404.648 154.363C405.972 151.308 407.756 143.799 407.328 143.102C407.133 142.788 407.196 142.39 407.465 142.224C409.441 141.002 407.771 119.34 405.035 110.754C402.395 102.452 402.601 100.511 406.834 94.0729C408.438 91.6303 408.612 88.8815 407.306 86.5938C404.626 81.8968 406.307 78.3215 413.265 73.9381C415.161 72.7427 417.897 71.0122 419.342 70.0935C423.962 67.1638 429.571 60.847 429.571 58.5779C429.571 57.9026 429.892 57.0282 430.286 56.6334C431.37 55.5523 429.763 52.2131 427.631 51.1099C425.393 49.955 425.99 49.8665 418.28 52.4493ZM344.333 107.939C356.87 110.319 365.878 123.008 363.673 135.184C359.857 156.241 333.311 162.772 320.778 145.733C307.89 128.206 323.038 103.899 344.333 107.939ZM1395.57 156.031C1382.04 161.329 1369.35 164.218 1350.16 166.362C1345.83 166.849 1321 167.251 1277.42 167.542C1241.03 167.782 1210.48 168.199 1209.52 168.465C1206.04 169.432 1207.53 167.291 1152.32 250.686C1110.49 313.854 1110.61 313.659 1110.61 318.536C1110.61 322.178 1112.1 323.488 1129.17 334.786C1153.24 350.726 1152.27 350.593 1160.83 339.107C1168.95 328.207 1172.26 328.023 1186.63 337.69C1201.49 347.685 1201.82 349.696 1191.22 365.831C1188.39 370.144 1179.36 384.125 1171.15 396.895C1162.94 409.665 1154.65 422.513 1152.73 425.446C1143.2 440.006 1143.16 441.961 1152.31 448.248C1170.74 460.911 1186.15 469.959 1187.31 468.796C1187.69 468.42 1188.32 468.114 1188.71 468.114C1190.94 468.114 1200.9 454.805 1207.24 443.33C1208.39 441.256 1211.06 437.021 1213.19 433.917C1215.32 430.811 1217.53 427.42 1218.1 426.387C1219.11 424.553 1219.51 423.929 1222.93 418.797C1228.01 411.17 1231.9 404.887 1232.65 403.116C1233.11 402.005 1233.91 400.677 1234.42 400.168C1234.93 399.655 1235.85 398.408 1236.47 397.4C1237.09 396.389 1239.27 393.039 1241.31 389.955C1247.03 381.313 1253.34 371.565 1260.77 359.872C1264.49 354.002 1268.46 347.792 1269.58 346.065C1272.64 341.35 1275.24 337.111 1277.83 332.576C1279.11 330.333 1281.05 327.366 1282.13 325.986C1284.34 323.16 1286.4 320.012 1293.41 308.729C1296.09 304.416 1299.9 298.73 1301.88 296.096C1303.86 293.461 1306.69 289.085 1308.18 286.37C1309.67 283.654 1313.84 276.917 1317.46 271.393C1321.07 265.87 1325.81 258.616 1328 255.273C1330.19 251.93 1331.98 248.978 1331.98 248.716C1331.98 248.454 1333.32 246.285 1334.96 243.894C1336.6 241.506 1338.58 238.392 1339.37 236.979C1340.16 235.562 1341.32 233.832 1341.97 233.134C1342.61 232.433 1344.72 229.412 1346.66 226.419C1352.43 217.497 1354.81 216.081 1365.44 215.21C1387.68 213.387 1394.33 207.58 1381.58 201.137C1372.26 196.433 1371.56 191.972 1379.6 188.478C1392.14 183.028 1403.47 175.287 1403.47 172.169C1403.47 171.675 1403.91 171.096 1404.46 170.885C1406.54 170.088 1409.78 161.775 1409.34 158.385C1408.51 151.961 1406.75 151.658 1395.57 156.031ZM567.026 186.179C565.887 186.33 564.799 186.854 564.607 187.349C564.419 187.843 563.91 188.249 563.475 188.249C561.277 188.249 561.178 193.359 561.406 294.926C561.613 388.501 561.694 394.747 562.786 400.518C564.19 407.957 564.356 407.769 558.062 405.975C553.029 404.54 552.881 404.533 547.571 405.558C539.19 407.174 536.727 405.367 534.92 396.275C532.763 385.398 521.686 382.553 514.547 391.043C512.663 393.283 508.256 394.275 507.08 392.726C502.511 386.711 489.941 389.158 487.913 396.456C486.785 400.529 487.894 416.015 489.782 422.498C491.468 428.287 498.168 429.003 507.224 424.365L513.076 421.365L514.595 423.125C517.25 426.21 516.306 431.301 512.017 437.054C506.601 444.319 507.102 447.012 515.528 455.982C526.365 467.516 525.24 467.892 550.58 444.322C568.851 427.331 569.404 426.579 569.412 418.697C569.415 413.351 570.522 413.469 580.507 419.904C587.274 424.261 612.683 424.87 612.683 420.671C612.683 420.192 612.934 419.797 613.24 419.797C614.398 419.797 614.778 410.344 614.826 380.265L614.881 349.202L616.334 346.862C619.217 342.224 622.754 342.261 633.381 347.036C645.11 352.308 647.994 352.301 650.734 346.977C654.558 339.549 658.049 332.166 660.066 327.24C668.3 307.135 668.721 307.818 639.978 294.911C613.694 283.108 615.11 285.229 614.973 257.494C614.837 229.039 618.351 206.251 624.62 195.005C625.693 193.075 625.257 189.909 623.646 187.935L622.108 186.054L595.603 185.98C581.027 185.943 568.169 186.032 567.026 186.179ZM675.395 214.313C674.879 214.431 673.153 214.697 671.556 214.904L668.662 215.284L667.95 218.815C667.091 223.098 666.969 269.187 667.81 272.12C669.086 276.57 673.33 277.979 685.48 277.987C696.177 277.99 700.48 280.145 700.48 285.495C700.48 290.915 698.032 292.959 689.595 294.576C683.832 295.679 682.836 296.181 680.594 299.118L678.846 301.416V320.935C678.846 346.91 678.562 346.254 690.222 347.361C702.228 348.497 702.35 348.862 702.416 384.32C702.442 399.865 702.726 414.277 703.043 416.347C703.357 418.417 703.663 420.465 703.722 420.897C703.777 421.328 703.965 421.542 704.135 421.372C704.304 421.203 704.761 421.328 705.149 421.653C707.298 423.435 779.523 424.472 792.039 422.896C799.952 421.904 800.051 421.542 800.324 393.087C800.575 366.735 800.405 366.451 783.886 365.85C771.588 365.403 767.455 362.702 768.388 355.732C769.095 350.441 772.329 348.154 780.714 347.01C792.245 345.435 792.846 343.999 792.481 318.769C792.168 297.073 791.614 295.992 780.021 294.365C772.54 293.317 769.291 290.797 769.291 286.052C769.291 280.595 772.514 278.636 782.628 277.931C795.792 277.016 797.787 275.12 799.008 262.353C800.438 247.399 801.924 238.924 804.299 232.175C805.575 228.552 806.755 224.678 806.921 223.567C807.087 222.46 807.588 221.246 808.034 220.874C808.698 220.324 808.68 219.859 807.927 218.35C807.419 217.335 807.161 216.25 807.352 215.94C808.175 214.612 681.051 213.044 675.395 214.313ZM958.123 219.11C954.137 220.173 954.148 220.088 954.148 253.553V283.407L955.715 285.705C958.392 289.631 957.99 289.587 991.147 289.635C1014.63 289.672 1021.59 289.86 1022.81 290.502C1030.38 294.457 1028.46 297.741 1008.1 315.633C998.201 324.329 986.818 334.694 976.408 344.49C968.93 351.526 949.844 368.86 926.411 389.903C915.017 400.131 912.882 404.267 916.363 409.392C920.05 414.82 939.992 436.345 942.591 437.699C944.966 438.936 948.782 437.984 951.636 435.441C952.326 434.829 954.443 432.932 956.342 431.231C958.237 429.53 962.19 426.092 965.121 423.594C968.053 421.092 972.85 416.827 975.782 414.107C978.713 411.392 985.627 405.145 991.147 400.23C996.663 395.312 1002.87 389.678 1004.94 387.708C1019.85 373.528 1018.78 373.244 1048.93 399.404C1080.26 426.601 1078.11 425.601 1086.46 416.816C1089.33 413.797 1092.62 410.141 1093.77 408.691C1094.93 407.245 1098.15 403.496 1100.94 400.367C1112.6 387.268 1112.99 388.077 1082.39 362.097C1056.57 340.177 1056.65 340.793 1077.06 322.913C1084.05 316.784 1098.18 303.652 1101.42 300.269C1105.69 295.804 1107.43 291.019 1108.7 280.178C1109.45 273.869 1110.3 269.179 1111.32 265.811C1111.62 264.807 1111.86 263.18 1111.86 262.191C1111.86 261.202 1112.12 259.903 1112.43 259.306C1112.75 258.704 1113.93 255.251 1115.07 251.627C1117.27 244.598 1120 237.706 1122.39 233.168C1122.92 232.16 1123.46 230.345 1123.59 229.138C1123.72 227.928 1124.25 226.633 1124.76 226.26C1126.37 225.08 1124.22 219.899 1121.76 219.043C1119.22 218.154 961.46 218.221 958.123 219.11ZM411.672 223.36C409.733 224.146 407.421 227.899 403.339 236.879C391.499 262.947 385.945 275.256 382.667 282.687C381.295 285.794 377.306 294.69 373.795 302.453C370.289 310.22 367.044 317.422 366.586 318.455C361.572 329.797 363.703 332.174 389.153 343.582C405.643 350.973 406.09 350.81 413.91 334.458C418.888 324.045 419.117 323.628 421.105 321.348C424.383 317.585 427.145 316.802 437.609 316.688C456.198 316.485 457.58 320.027 446.374 339.166C442.739 345.375 437.075 355.26 433.786 361.127C430.5 366.994 426.381 374.318 424.637 377.406C418.004 389.139 419.36 391.932 436.78 402.363C442.3 405.669 448.996 409.447 451.662 410.765L456.511 413.159L459.317 411.794C461.102 410.923 462.507 409.676 463.167 408.366C463.742 407.233 464.575 405.883 465.018 405.367C465.464 404.846 466.592 403.012 467.529 401.286C470.095 396.548 471.069 394.899 486.335 369.285C497.08 351.261 500.627 345.202 506.722 334.476C515.115 319.714 517.427 317.544 525.83 316.548C531.708 315.847 532.825 315.005 534.968 309.67C535.853 307.464 536.122 306.08 537.413 297.121C538.674 288.351 540.233 281.953 543.323 272.85C545.186 267.364 545.318 265.597 544.083 262.744C541.933 257.774 546.288 258.254 500.015 257.903C450.187 257.523 452.872 258.121 452.396 247.31C452.016 238.606 452.248 238.824 434.748 230.828C417.318 222.866 414.858 222.069 411.672 223.36ZM1257.19 248.672C1263.83 252.262 1263.34 253.694 1246.78 279.385C1231.84 302.549 1231.01 302.881 1215.02 292.244C1201.98 283.565 1200.7 279.621 1207.52 269.12C1209.39 266.227 1212.06 262.018 1213.43 259.763C1218.23 251.926 1222.34 248.664 1228.5 247.816C1235.38 246.871 1254.94 247.451 1257.19 248.672ZM836.169 263.774C834.145 265.283 828.54 270.116 823.717 274.522C804.439 292.111 804.148 289.974 829.735 318.455C849.083 339.992 849.293 340.04 864.47 326.307C886.878 306.028 886.819 306.67 868.146 286.477C864.308 282.322 859.746 277.23 858.017 275.157C856.284 273.087 852.416 269.135 849.422 266.371C842.574 260.062 841.446 259.841 836.169 263.774ZM920.028 296.498C917.919 298.055 910.743 304.335 904.087 310.46C897.432 316.585 888.062 325.123 883.268 329.436C878.475 333.753 870.573 340.952 865.713 345.438C860.856 349.925 851.107 358.721 844.057 364.99C817.065 388.969 817.349 386.645 838.54 410.023C853.633 426.675 855.023 427.25 863.095 420.188C867.767 416.1 875.13 409.477 881.318 403.795C885.075 400.345 890.337 395.545 893.007 393.128C895.677 390.711 901.514 385.346 905.979 381.206C917.535 370.488 930.113 359.223 940.652 350.157C954.774 338.003 957.994 334.561 958.241 331.321C958.639 326.145 957.684 324.647 945.995 312.105C927.056 291.793 926.706 291.579 920.028 296.498ZM1319.77 294.59C1312.4 296.572 1311.74 299.32 1312.02 326.89L1312.22 347.493L1313.85 349.121C1316.5 351.766 1320.72 352.002 1365.22 351.995C1400.84 351.987 1411.14 351.718 1415.35 350.681C1417.28 350.209 1418.76 345.992 1421.35 333.517C1423.4 323.632 1425.66 317.193 1430.54 307.239L1434.21 299.789L1432.78 297.206C1431.76 295.35 1430.83 294.505 1429.48 294.218C1425.47 293.358 1323.07 293.705 1319.77 294.59ZM311.674 311.234C308.208 313.677 279.992 342.147 277.573 345.645C272.148 353.471 270.585 351.46 322.481 403.333C375.3 456.126 369.592 451.152 374.817 448.968C377.63 447.791 407.904 417.605 410.706 413.185C415.916 404.964 418.45 408.182 362.468 351.88C315.125 304.261 318.141 306.674 311.674 311.234ZM131.065 311.26C128.546 312.718 41.5017 400.153 39.2561 403.481C36.0591 408.219 36.2729 408.536 56.0485 428.501C78.7923 451.466 79.2791 451.809 84.3271 448.507C87.336 446.536 173.061 360.459 175.188 357.271C179.407 350.947 178.157 348.737 159.572 329.613C139.303 308.755 137.451 307.563 131.065 311.26Z" fill="#101828"/>
</svg>
