<svg width="30" height="30" viewBox="0 0 30 30" fill="none" xmlns="http://www.w3.org/2000/svg">
<circle cx="15" cy="15" r="15" fill="url(#paint0_linear_23_168)"/>
<g clip-path="url(#clip0_23_168)">
<path fill-rule="evenodd" clip-rule="evenodd" d="M15.7277 14.9672C15.8293 14.9052 15.9156 14.7753 15.9851 14.6309C16.9005 15.0051 17.5438 15.8891 17.5438 16.9201C17.5438 18.2897 16.4085 19.4001 15.0081 19.4001C14.4333 19.4001 13.9031 19.2129 13.4778 18.8976C13.3383 18.8316 13.2235 18.7681 13.1296 18.7162C12.9839 18.6356 12.8883 18.5828 12.8285 18.5911C12.6536 18.6152 12.7044 18.7761 12.7505 18.9222C12.7819 19.0215 12.8111 19.114 12.7659 19.1522C12.7186 19.1921 12.5654 19.0461 12.3864 18.8754C12.1428 18.6432 11.8514 18.3653 11.7139 18.4487C11.6053 18.5147 11.7108 18.6938 11.8399 18.9129L11.8495 18.9292C11.904 19.0218 11.9673 19.1162 12.0249 19.2022C12.1422 19.3772 12.2367 19.5181 12.1894 19.542C12.1323 19.5708 11.7343 19.3022 11.3988 18.9292C11.2694 18.7852 11.144 18.6292 11.0274 18.4842V18.4842C10.7724 18.1668 10.5598 17.9024 10.4405 17.9337C10.297 17.9714 10.4056 18.2674 10.5651 18.5522C10.6397 18.6855 10.7274 18.8211 10.8034 18.9386V18.9386C10.9216 19.1212 11.0112 19.2598 10.9787 19.2769C10.9348 19.2998 10.5487 18.9233 10.2864 18.4487C10.1306 18.1669 9.99979 17.8554 9.89389 17.6032C9.77905 17.3297 9.6935 17.126 9.63716 17.1055C9.44144 17.0343 9.44144 17.4334 9.51994 18.0093C9.53018 18.0845 9.54543 18.1633 9.56421 18.2435C10.3255 20.7066 12.664 22.5 15.4307 22.5C18.815 22.5 21.5585 19.8168 21.5585 16.5068C21.5585 13.3564 19.0733 10.7738 15.9157 10.5321C15.9197 10.3836 15.9971 10.0893 15.9971 10.0893C15.9971 10.0893 16.5546 8.74064 16.584 8.45244C16.586 8.43331 16.5883 8.41252 16.5908 8.39039C16.6255 8.07899 16.6901 7.5 16.192 7.5C15.926 7.5 15.8023 7.69789 15.6608 7.92422V7.92422C15.6065 8.0111 15.5495 8.10218 15.4809 8.18786C14.9867 8.80499 14.1558 9.57565 13.6846 9.98622C12.6887 10.854 11.7116 11.5672 11.1417 11.9832L11.1416 11.9832C10.8825 12.1724 10.7075 12.3001 10.6534 12.3529C10.2454 12.7506 8.78254 15.3892 8.78254 15.3892C8.78254 15.3892 8.30946 16.2358 8.47761 16.4075C8.64576 16.5792 9.05126 16.5398 9.05126 16.5398C9.05126 16.5398 14.4987 15.2901 14.9864 15.1916C15.1178 15.165 15.2105 15.1497 15.2816 15.138C15.4748 15.1061 15.5095 15.1003 15.7277 14.9672ZM11.8761 13.3612C11.5837 13.6392 11.0987 14.3026 11.0987 14.3026C11.0987 14.3026 12 14.3581 12.4964 13.8863C12.9928 13.4145 12.8791 12.6103 12.8791 12.6103C12.8791 12.6103 12.1685 13.0833 11.8761 13.3612Z" fill="white"/>
</g>
<defs>
<linearGradient id="paint0_linear_23_168" x1="0.193393" y1="0" x2="0.193393" y2="29.6132" gradientUnits="userSpaceOnUse">
<stop stop-color="#0180C7"/>
<stop offset="1" stop-color="#0C69C8"/>
</linearGradient>
<clipPath id="clip0_23_168">
<rect width="15" height="15" fill="white" transform="translate(7.5 7.5)"/>
</clipPath>
</defs>
</svg>
