<svg width="512" height="512" viewBox="0 0 512 512" fill="none" xmlns="http://www.w3.org/2000/svg">
<path d="M76.4179 0C34.2135 0 0 33.4353 0 74.6797V275.693C0 275.693 152.836 187.232 308.856 206.614C415.204 219.825 512 283.783 512 283.783V74.6797C512 33.4353 477.787 0 435.582 0H76.4179Z" fill="#101828"/>
<path d="M0 325.43V437.372C0 478.588 34.2135 512 76.4179 512H435.582C477.787 512 512 478.588 512 437.372V336.625C512 336.625 433.035 274.775 308.856 260.131C152.836 241.732 0 325.43 0 325.43Z" fill="#0F2A4C"/>
<path d="M0 274.406C0 274.406 152.836 185.782 308.856 205.2C415.204 218.436 512 282.511 512 282.511V334.884C512 334.884 433.035 272.877 308.856 258.196C152.836 239.75 0 323.661 0 323.661V274.406Z" fill="white"/>
<path d="M471.064 243.039C471.064 356.339 377.029 448.187 261.032 448.187C145.034 448.187 51 356.339 51 243.039C51 129.74 145.034 37.8921 261.032 37.8921C377.029 37.8921 471.064 129.74 471.064 243.039Z" fill="white"/>
<path d="M84.5626 234.706C125.272 218.596 182.813 200.854 245.042 197.333C255.271 174.902 278.368 159.256 305.222 159.256C337.736 159.256 364.742 182.192 370.07 212.337C394.748 219.738 417.504 228.928 436.718 237.785C436.789 239.79 436.825 241.805 436.825 243.827C436.825 256.848 435.333 269.53 432.505 281.719C412.622 272.872 388.575 264.011 361.01 257.21C349.375 275.257 328.739 287.256 305.222 287.256C277.14 287.256 253.166 270.145 243.72 246.058C183.849 249.435 128.406 265.212 88.2427 279.974C85.6711 268.321 84.3174 256.228 84.3174 243.827C84.3174 240.767 84.3998 237.726 84.5626 234.706Z" fill="#101828"/>
<path d="M305.223 151.756C339.642 151.756 368.71 174.948 376.486 206.454C398.373 213.255 418.639 221.358 436.167 229.288L439.857 230.974L444.049 232.905L444.213 237.518C444.288 239.612 444.325 241.715 444.325 243.827C444.325 257.423 442.767 270.673 439.812 283.414L437.758 292.266L429.456 288.571C411.126 280.415 389.191 272.246 364.179 265.749C350.806 283.375 329.347 294.756 305.223 294.756C276.047 294.756 250.75 278.108 238.963 253.87C182.059 257.779 129.411 272.833 90.8301 287.014L82.7695 289.977L80.9189 281.591C78.2311 269.411 76.8174 256.775 76.8174 243.827C76.8174 240.633 76.9032 237.457 77.0732 234.302L77.332 229.501L81.8027 227.731C121.992 211.827 178.628 194.258 240.256 190.117C252.532 167.258 277.068 151.756 305.223 151.756ZM91.8174 243.827C91.8174 252.723 92.5467 261.448 93.9482 269.952C133.724 255.948 186.482 241.775 243.298 238.57L248.72 238.265L250.702 243.32C259.022 264.536 280.227 279.756 305.223 279.756C326.147 279.756 344.428 269.089 354.707 253.146L357.608 248.646L362.807 249.929C387.008 255.899 408.541 263.43 426.989 271.167C428.525 262.28 429.325 253.147 429.325 243.827C429.325 243.437 429.323 243.046 429.32 242.656C411.286 234.526 390.393 226.262 367.915 219.521L363.488 218.193L362.685 213.642C358.005 187.165 334.184 166.756 305.223 166.756C281.323 166.756 260.883 180.671 251.866 200.445L249.987 204.565L245.466 204.821C186.585 208.153 131.813 224.465 91.8662 239.903C91.8347 241.207 91.8174 242.515 91.8174 243.827Z" fill="#101828"/>
<path d="M436.825 240.124C433.55 148.068 355.861 74.4187 260.502 74.4187C166.212 74.4187 89.1971 146.428 84.3174 237.039C125.067 220.898 182.666 203.122 244.958 199.595C255.197 177.12 278.317 161.444 305.198 161.444C337.745 161.444 364.778 184.424 370.111 214.627C394.813 222.043 417.592 231.25 436.825 240.124Z" fill="#EC2B37"/>
<path d="M260.502 66.9187C359.732 66.9187 440.895 143.6 444.32 239.857L444.754 252.042L433.684 246.934C414.693 238.173 392.248 229.103 367.954 221.81L363.528 220.482L362.725 215.931C358.038 189.392 334.187 168.944 305.198 168.944C281.276 168.944 260.811 182.885 251.782 202.704L249.904 206.827L245.382 207.083C184.175 210.549 127.402 228.041 87.0791 244.012L76.1992 248.322L76.8281 236.635C81.9305 141.892 162.381 66.9189 260.502 66.9187ZM260.502 81.9187C174.172 81.9189 103.218 144.803 92.8711 225.712C132.085 211.056 184.06 196.153 240.169 192.38C252.454 169.479 277.012 153.944 305.198 153.944C339.657 153.944 368.75 177.185 376.529 208.747C395.244 214.567 412.776 221.34 428.426 228.143C419.201 146.063 347.696 81.9187 260.502 81.9187Z" fill="#101828"/>
<path d="M87.873 283.166C104.916 360.929 175.51 419.225 260.007 419.225C343.867 419.225 414.033 361.804 431.746 284.92C411.885 276.022 387.866 267.11 360.332 260.271C348.71 278.421 328.097 290.489 304.607 290.489C276.556 290.489 252.609 273.28 243.174 249.054C183.371 252.45 127.991 268.318 87.873 283.166Z" fill="white"/>
<path d="M250.163 246.333C258.486 267.701 279.674 282.989 304.607 282.989C325.481 282.989 343.74 272.274 354.016 256.226L356.918 251.695L362.14 252.992C390.16 259.952 414.601 269.02 434.812 278.076L440.438 280.596L439.055 286.604C420.551 366.917 347.335 426.725 260.007 426.725C172.017 426.725 98.3505 366.006 80.5469 284.771L79.1494 278.397L85.2695 276.131C125.804 261.13 181.95 245.019 242.749 241.566L248.187 241.257L250.163 246.333ZM238.404 256.871C184.598 260.595 134.603 274.366 96.7324 287.924C115.379 359.02 181.333 411.725 260.007 411.725C338.193 411.725 403.818 359.669 422.929 289.24C405.849 281.896 385.916 274.682 363.512 268.821C350.161 286.534 328.725 297.989 304.607 297.989C275.432 297.989 250.167 281.227 238.404 256.871Z" fill="#101828"/>
<path d="M342.857 223.256C342.857 242.162 326.825 257.488 307.048 257.488C287.271 257.488 271.238 242.162 271.238 223.256C271.238 204.35 287.271 189.023 307.048 189.023C326.825 189.023 342.857 204.35 342.857 223.256Z" fill="white"/>
</svg>
