<svg width="330" height="330" viewBox="0 0 330 330" fill="none" xmlns="http://www.w3.org/2000/svg">
<path d="M282.165 277.946L282.167 277.948C345.734 214.381 345.734 111.243 282.167 47.6755C218.6 -15.8918 115.462 -15.8918 51.8945 47.6755L52.0538 47.8348C53.7274 46.2819 55.4281 44.7699 57.1287 43.326L124.332 110.529C150.995 92.3498 187.657 95.0767 211.29 118.71C234.923 142.343 237.65 179.005 219.471 205.668L286.674 272.871C285.23 274.572 283.718 276.272 282.165 277.946Z" fill="#EAECF0" fill-opacity="0.5"/>
<path d="M132.513 197.487C149.246 214.221 176.377 214.221 193.111 197.487C209.844 180.754 209.844 153.623 193.111 136.889C176.377 120.156 149.246 120.156 132.513 136.889C115.779 153.623 115.779 180.754 132.513 197.487Z" fill="#EAECF0" fill-opacity="0.5"/>
<path fill-rule="evenodd" clip-rule="evenodd" d="M47.6755 282.325C111.243 345.892 214.381 345.892 277.948 282.325C274.918 285.354 271.706 288.324 268.495 291.051L201.291 223.847C174.628 242.027 137.966 239.3 114.333 215.667C90.7 192.033 87.9731 155.372 106.153 128.709L38.9494 61.5054C41.6763 58.2937 44.6456 55.082 47.6755 52.0521C-15.8918 115.619 -15.8918 218.757 47.6755 282.325Z" fill="#EAECF0" fill-opacity="0.5"/>
</svg>
