<svg xmlns="http://www.w3.org/2000/svg" width="30" height="30" fill="none" viewBox="0 0 30 30"><circle cx="15" cy="15" r="15" fill="url(#paint0_linear_23_183)"/><g clip-path="url(#clip0_23_183)"><path fill="#fff" fill-rule="evenodd" d="M20.866 19.958s-1.892 1.517-5.656.89c-2.855-.477-4.378-3.625-4.378-5.317 0-4.011 2.969-4.924 4.976-4.924s3.317 1.957 3.317 3.472-1.072 2.84-2.74 2.84c-1.667 0-2.161-1.17-2.161-2.247s.87-1.455 1.665-1.455c.794 0 1.066.678 1.066 1.26 0 .583-.452.792-.83.792-.376 0-.414-.19-.558-.39s.184-.957-.357-.957-.641.87-.641.87.197 1.68 1.816 1.65c1.62-.028 2.388-1.28 2.165-2.52s-1.426-2.557-3.538-2.29c-2.111.265-2.973 2.399-2.593 4.679s3.111 3.6 5.259 3.126c2.147-.476 4.286-2.03 4.286-5.973 0-3.941-3.414-6.311-7.485-5.92-4.07.39-6.598 3.95-6.436 8.225.162 4.277 4.22 6.606 7.65 6.726 3.432.12 5.535-1.866 5.535-1.866s.473-.422.288-.752-.65.081-.65.081" clip-rule="evenodd"/></g><defs><linearGradient id="paint0_linear_23_183" x1="0" x2="0" y1="0" y2="30" gradientUnits="userSpaceOnUse"><stop stop-color="#fe9f92"/><stop offset="1" stop-color="#f66f71"/></linearGradient><clipPath id="clip0_23_183"><path fill="#fff" d="M7.5 7.5h15v15h-15z"/></clipPath></defs></svg>
