<svg width="30" height="30" viewBox="0 0 30 30" fill="none" xmlns="http://www.w3.org/2000/svg">
<circle cx="15" cy="15" r="15" fill="url(#paint0_linear_23_192)"/>
<g clip-path="url(#clip0_23_192)">
<path fill-rule="evenodd" clip-rule="evenodd" d="M17.8251 19.0838C18.0104 18.4061 17.6507 17.013 17.6507 17.013C17.6507 17.013 17.3897 18.1479 16.9821 18.5674C16.6342 18.9252 16.2081 19.1734 15.597 19.2386C16.0966 18.9959 16.4403 18.4898 16.4403 17.9049C16.4403 17.0839 15.7632 16.4182 14.9279 16.4182C14.0926 16.4182 13.4155 17.0839 13.4155 17.9049C13.4155 18.1292 13.466 18.3418 13.5565 18.5325C13.0341 18.1163 12.9519 17.449 12.9519 17.449C12.9519 17.449 12.3686 19.871 13.976 21.0103C15.5833 22.1496 18.7321 21.1703 18.7321 21.1703C18.7321 21.1703 14.226 24.3409 10.8869 20.8901C8.01058 17.9175 10.1362 14.004 10.1362 14.004C10.1362 14.004 10.0444 14.367 10.0444 14.7885C10.0444 15.2099 10.2729 15.5306 10.2729 15.5306C10.2729 15.5306 10.9545 14.0939 11.4849 13.5096C11.987 12.9567 12.6163 12.5082 13.1599 12.1208C13.5783 11.8226 13.9459 11.5607 14.1654 11.3151C15.3747 9.96295 14.6333 7.5 14.6333 7.5C14.6333 7.5 15.9964 8.70176 16.377 10.2538C16.5221 10.8455 16.4287 11.5186 16.3453 12.1206C16.2098 13.0978 16.1004 13.8875 17.079 13.8362C18.6605 13.7534 17.2862 11.3151 17.2862 11.3151C17.2862 11.3151 20.8737 13.2007 20.6057 16.4984C20.3377 19.7961 16.6844 20.5458 16.6844 20.5458C16.6844 20.5458 17.6397 19.7615 17.8251 19.0838Z" fill="white"/>
</g>
<defs>
<linearGradient id="paint0_linear_23_192" x1="0" y1="0" x2="0" y2="30" gradientUnits="userSpaceOnUse">
<stop stop-color="#FB9B51"/>
<stop offset="1" stop-color="#FBAE46"/>
</linearGradient>
<clipPath id="clip0_23_192">
<rect width="15" height="15" fill="white" transform="translate(7.5 7.5)"/>
</clipPath>
</defs>
</svg>
